%TF.GenerationSoftware,KiCad,Pcbnew,7.0.1*%
%TF.CreationDate,2023-04-23T12:43:51+02:00*%
%TF.ProjectId,display7segm,64697370-6c61-4793-9773-65676d2e6b69,rev?*%
%TF.SameCoordinates,Original*%
%TF.FileFunction,Legend,Top*%
%TF.FilePolarity,Positive*%
%FSLAX46Y46*%
G04 Gerber Fmt 4.6, Leading zero omitted, Abs format (unit mm)*
G04 Created by KiCad (PCBNEW 7.0.1) date 2023-04-23 12:43:51*
%MOMM*%
%LPD*%
G01*
G04 APERTURE LIST*
%ADD10C,0.100000*%
%ADD11C,0.080000*%
%ADD12C,0.120000*%
G04 APERTURE END LIST*
D10*
X46430952Y-32212619D02*
X46383333Y-32188809D01*
X46383333Y-32188809D02*
X46311904Y-32188809D01*
X46311904Y-32188809D02*
X46240476Y-32212619D01*
X46240476Y-32212619D02*
X46192857Y-32260238D01*
X46192857Y-32260238D02*
X46169047Y-32307857D01*
X46169047Y-32307857D02*
X46145238Y-32403095D01*
X46145238Y-32403095D02*
X46145238Y-32474523D01*
X46145238Y-32474523D02*
X46169047Y-32569761D01*
X46169047Y-32569761D02*
X46192857Y-32617380D01*
X46192857Y-32617380D02*
X46240476Y-32665000D01*
X46240476Y-32665000D02*
X46311904Y-32688809D01*
X46311904Y-32688809D02*
X46359523Y-32688809D01*
X46359523Y-32688809D02*
X46430952Y-32665000D01*
X46430952Y-32665000D02*
X46454761Y-32641190D01*
X46454761Y-32641190D02*
X46454761Y-32474523D01*
X46454761Y-32474523D02*
X46359523Y-32474523D01*
X46669047Y-32688809D02*
X46669047Y-32188809D01*
X46669047Y-32188809D02*
X46954761Y-32688809D01*
X46954761Y-32688809D02*
X46954761Y-32188809D01*
X47192857Y-32688809D02*
X47192857Y-32188809D01*
X47192857Y-32188809D02*
X47311905Y-32188809D01*
X47311905Y-32188809D02*
X47383333Y-32212619D01*
X47383333Y-32212619D02*
X47430952Y-32260238D01*
X47430952Y-32260238D02*
X47454762Y-32307857D01*
X47454762Y-32307857D02*
X47478571Y-32403095D01*
X47478571Y-32403095D02*
X47478571Y-32474523D01*
X47478571Y-32474523D02*
X47454762Y-32569761D01*
X47454762Y-32569761D02*
X47430952Y-32617380D01*
X47430952Y-32617380D02*
X47383333Y-32665000D01*
X47383333Y-32665000D02*
X47311905Y-32688809D01*
X47311905Y-32688809D02*
X47192857Y-32688809D01*
D11*
X27180953Y-27545952D02*
X27419048Y-27545952D01*
X27133334Y-27688809D02*
X27300000Y-27188809D01*
X27300000Y-27188809D02*
X27466667Y-27688809D01*
X27192857Y-31326904D02*
X27359524Y-31326904D01*
X27430952Y-31588809D02*
X27192857Y-31588809D01*
X27192857Y-31588809D02*
X27192857Y-31088809D01*
X27192857Y-31088809D02*
X27430952Y-31088809D01*
D10*
X46145238Y-30465000D02*
X46216666Y-30488809D01*
X46216666Y-30488809D02*
X46335714Y-30488809D01*
X46335714Y-30488809D02*
X46383333Y-30465000D01*
X46383333Y-30465000D02*
X46407142Y-30441190D01*
X46407142Y-30441190D02*
X46430952Y-30393571D01*
X46430952Y-30393571D02*
X46430952Y-30345952D01*
X46430952Y-30345952D02*
X46407142Y-30298333D01*
X46407142Y-30298333D02*
X46383333Y-30274523D01*
X46383333Y-30274523D02*
X46335714Y-30250714D01*
X46335714Y-30250714D02*
X46240476Y-30226904D01*
X46240476Y-30226904D02*
X46192857Y-30203095D01*
X46192857Y-30203095D02*
X46169047Y-30179285D01*
X46169047Y-30179285D02*
X46145238Y-30131666D01*
X46145238Y-30131666D02*
X46145238Y-30084047D01*
X46145238Y-30084047D02*
X46169047Y-30036428D01*
X46169047Y-30036428D02*
X46192857Y-30012619D01*
X46192857Y-30012619D02*
X46240476Y-29988809D01*
X46240476Y-29988809D02*
X46359523Y-29988809D01*
X46359523Y-29988809D02*
X46430952Y-30012619D01*
X46573809Y-29988809D02*
X46859523Y-29988809D01*
X46716666Y-30488809D02*
X46716666Y-29988809D01*
X47311903Y-30441190D02*
X47288094Y-30465000D01*
X47288094Y-30465000D02*
X47216665Y-30488809D01*
X47216665Y-30488809D02*
X47169046Y-30488809D01*
X47169046Y-30488809D02*
X47097618Y-30465000D01*
X47097618Y-30465000D02*
X47049999Y-30417380D01*
X47049999Y-30417380D02*
X47026189Y-30369761D01*
X47026189Y-30369761D02*
X47002380Y-30274523D01*
X47002380Y-30274523D02*
X47002380Y-30203095D01*
X47002380Y-30203095D02*
X47026189Y-30107857D01*
X47026189Y-30107857D02*
X47049999Y-30060238D01*
X47049999Y-30060238D02*
X47097618Y-30012619D01*
X47097618Y-30012619D02*
X47169046Y-29988809D01*
X47169046Y-29988809D02*
X47216665Y-29988809D01*
X47216665Y-29988809D02*
X47288094Y-30012619D01*
X47288094Y-30012619D02*
X47311903Y-30036428D01*
X47526189Y-30488809D02*
X47526189Y-29988809D01*
X47526189Y-29988809D02*
X47716665Y-29988809D01*
X47716665Y-29988809D02*
X47764284Y-30012619D01*
X47764284Y-30012619D02*
X47788094Y-30036428D01*
X47788094Y-30036428D02*
X47811903Y-30084047D01*
X47811903Y-30084047D02*
X47811903Y-30155476D01*
X47811903Y-30155476D02*
X47788094Y-30203095D01*
X47788094Y-30203095D02*
X47764284Y-30226904D01*
X47764284Y-30226904D02*
X47716665Y-30250714D01*
X47716665Y-30250714D02*
X47526189Y-30250714D01*
D11*
X27430952Y-33162619D02*
X27383333Y-33138809D01*
X27383333Y-33138809D02*
X27311904Y-33138809D01*
X27311904Y-33138809D02*
X27240476Y-33162619D01*
X27240476Y-33162619D02*
X27192857Y-33210238D01*
X27192857Y-33210238D02*
X27169047Y-33257857D01*
X27169047Y-33257857D02*
X27145238Y-33353095D01*
X27145238Y-33353095D02*
X27145238Y-33424523D01*
X27145238Y-33424523D02*
X27169047Y-33519761D01*
X27169047Y-33519761D02*
X27192857Y-33567380D01*
X27192857Y-33567380D02*
X27240476Y-33615000D01*
X27240476Y-33615000D02*
X27311904Y-33638809D01*
X27311904Y-33638809D02*
X27359523Y-33638809D01*
X27359523Y-33638809D02*
X27430952Y-33615000D01*
X27430952Y-33615000D02*
X27454761Y-33591190D01*
X27454761Y-33591190D02*
X27454761Y-33424523D01*
X27454761Y-33424523D02*
X27359523Y-33424523D01*
D10*
X46097619Y-27988809D02*
X46264285Y-28488809D01*
X46264285Y-28488809D02*
X46430952Y-27988809D01*
X46883332Y-28441190D02*
X46859523Y-28465000D01*
X46859523Y-28465000D02*
X46788094Y-28488809D01*
X46788094Y-28488809D02*
X46740475Y-28488809D01*
X46740475Y-28488809D02*
X46669047Y-28465000D01*
X46669047Y-28465000D02*
X46621428Y-28417380D01*
X46621428Y-28417380D02*
X46597618Y-28369761D01*
X46597618Y-28369761D02*
X46573809Y-28274523D01*
X46573809Y-28274523D02*
X46573809Y-28203095D01*
X46573809Y-28203095D02*
X46597618Y-28107857D01*
X46597618Y-28107857D02*
X46621428Y-28060238D01*
X46621428Y-28060238D02*
X46669047Y-28012619D01*
X46669047Y-28012619D02*
X46740475Y-27988809D01*
X46740475Y-27988809D02*
X46788094Y-27988809D01*
X46788094Y-27988809D02*
X46859523Y-28012619D01*
X46859523Y-28012619D02*
X46883332Y-28036428D01*
X47383332Y-28441190D02*
X47359523Y-28465000D01*
X47359523Y-28465000D02*
X47288094Y-28488809D01*
X47288094Y-28488809D02*
X47240475Y-28488809D01*
X47240475Y-28488809D02*
X47169047Y-28465000D01*
X47169047Y-28465000D02*
X47121428Y-28417380D01*
X47121428Y-28417380D02*
X47097618Y-28369761D01*
X47097618Y-28369761D02*
X47073809Y-28274523D01*
X47073809Y-28274523D02*
X47073809Y-28203095D01*
X47073809Y-28203095D02*
X47097618Y-28107857D01*
X47097618Y-28107857D02*
X47121428Y-28060238D01*
X47121428Y-28060238D02*
X47169047Y-28012619D01*
X47169047Y-28012619D02*
X47240475Y-27988809D01*
X47240475Y-27988809D02*
X47288094Y-27988809D01*
X47288094Y-27988809D02*
X47359523Y-28012619D01*
X47359523Y-28012619D02*
X47383332Y-28036428D01*
D11*
X27454761Y-29491190D02*
X27430952Y-29515000D01*
X27430952Y-29515000D02*
X27359523Y-29538809D01*
X27359523Y-29538809D02*
X27311904Y-29538809D01*
X27311904Y-29538809D02*
X27240476Y-29515000D01*
X27240476Y-29515000D02*
X27192857Y-29467380D01*
X27192857Y-29467380D02*
X27169047Y-29419761D01*
X27169047Y-29419761D02*
X27145238Y-29324523D01*
X27145238Y-29324523D02*
X27145238Y-29253095D01*
X27145238Y-29253095D02*
X27169047Y-29157857D01*
X27169047Y-29157857D02*
X27192857Y-29110238D01*
X27192857Y-29110238D02*
X27240476Y-29062619D01*
X27240476Y-29062619D02*
X27311904Y-29038809D01*
X27311904Y-29038809D02*
X27359523Y-29038809D01*
X27359523Y-29038809D02*
X27430952Y-29062619D01*
X27430952Y-29062619D02*
X27454761Y-29086428D01*
X27169047Y-30538809D02*
X27169047Y-30038809D01*
X27169047Y-30038809D02*
X27288095Y-30038809D01*
X27288095Y-30038809D02*
X27359523Y-30062619D01*
X27359523Y-30062619D02*
X27407142Y-30110238D01*
X27407142Y-30110238D02*
X27430952Y-30157857D01*
X27430952Y-30157857D02*
X27454761Y-30253095D01*
X27454761Y-30253095D02*
X27454761Y-30324523D01*
X27454761Y-30324523D02*
X27430952Y-30419761D01*
X27430952Y-30419761D02*
X27407142Y-30467380D01*
X27407142Y-30467380D02*
X27359523Y-30515000D01*
X27359523Y-30515000D02*
X27288095Y-30538809D01*
X27288095Y-30538809D02*
X27169047Y-30538809D01*
X27371429Y-32376904D02*
X27204762Y-32376904D01*
X27204762Y-32638809D02*
X27204762Y-32138809D01*
X27204762Y-32138809D02*
X27442857Y-32138809D01*
D10*
X46169047Y-29438809D02*
X46169047Y-28938809D01*
X46169047Y-28938809D02*
X46288095Y-28938809D01*
X46288095Y-28938809D02*
X46359523Y-28962619D01*
X46359523Y-28962619D02*
X46407142Y-29010238D01*
X46407142Y-29010238D02*
X46430952Y-29057857D01*
X46430952Y-29057857D02*
X46454761Y-29153095D01*
X46454761Y-29153095D02*
X46454761Y-29224523D01*
X46454761Y-29224523D02*
X46430952Y-29319761D01*
X46430952Y-29319761D02*
X46407142Y-29367380D01*
X46407142Y-29367380D02*
X46359523Y-29415000D01*
X46359523Y-29415000D02*
X46288095Y-29438809D01*
X46288095Y-29438809D02*
X46169047Y-29438809D01*
X46645238Y-29415000D02*
X46716666Y-29438809D01*
X46716666Y-29438809D02*
X46835714Y-29438809D01*
X46835714Y-29438809D02*
X46883333Y-29415000D01*
X46883333Y-29415000D02*
X46907142Y-29391190D01*
X46907142Y-29391190D02*
X46930952Y-29343571D01*
X46930952Y-29343571D02*
X46930952Y-29295952D01*
X46930952Y-29295952D02*
X46907142Y-29248333D01*
X46907142Y-29248333D02*
X46883333Y-29224523D01*
X46883333Y-29224523D02*
X46835714Y-29200714D01*
X46835714Y-29200714D02*
X46740476Y-29176904D01*
X46740476Y-29176904D02*
X46692857Y-29153095D01*
X46692857Y-29153095D02*
X46669047Y-29129285D01*
X46669047Y-29129285D02*
X46645238Y-29081666D01*
X46645238Y-29081666D02*
X46645238Y-29034047D01*
X46645238Y-29034047D02*
X46669047Y-28986428D01*
X46669047Y-28986428D02*
X46692857Y-28962619D01*
X46692857Y-28962619D02*
X46740476Y-28938809D01*
X46740476Y-28938809D02*
X46859523Y-28938809D01*
X46859523Y-28938809D02*
X46930952Y-28962619D01*
X46145238Y-31465000D02*
X46216666Y-31488809D01*
X46216666Y-31488809D02*
X46335714Y-31488809D01*
X46335714Y-31488809D02*
X46383333Y-31465000D01*
X46383333Y-31465000D02*
X46407142Y-31441190D01*
X46407142Y-31441190D02*
X46430952Y-31393571D01*
X46430952Y-31393571D02*
X46430952Y-31345952D01*
X46430952Y-31345952D02*
X46407142Y-31298333D01*
X46407142Y-31298333D02*
X46383333Y-31274523D01*
X46383333Y-31274523D02*
X46335714Y-31250714D01*
X46335714Y-31250714D02*
X46240476Y-31226904D01*
X46240476Y-31226904D02*
X46192857Y-31203095D01*
X46192857Y-31203095D02*
X46169047Y-31179285D01*
X46169047Y-31179285D02*
X46145238Y-31131666D01*
X46145238Y-31131666D02*
X46145238Y-31084047D01*
X46145238Y-31084047D02*
X46169047Y-31036428D01*
X46169047Y-31036428D02*
X46192857Y-31012619D01*
X46192857Y-31012619D02*
X46240476Y-30988809D01*
X46240476Y-30988809D02*
X46359523Y-30988809D01*
X46359523Y-30988809D02*
X46430952Y-31012619D01*
X46645237Y-31488809D02*
X46645237Y-30988809D01*
X46645237Y-31226904D02*
X46930951Y-31226904D01*
X46930951Y-31488809D02*
X46930951Y-30988809D01*
X47454761Y-31441190D02*
X47430952Y-31465000D01*
X47430952Y-31465000D02*
X47359523Y-31488809D01*
X47359523Y-31488809D02*
X47311904Y-31488809D01*
X47311904Y-31488809D02*
X47240476Y-31465000D01*
X47240476Y-31465000D02*
X47192857Y-31417380D01*
X47192857Y-31417380D02*
X47169047Y-31369761D01*
X47169047Y-31369761D02*
X47145238Y-31274523D01*
X47145238Y-31274523D02*
X47145238Y-31203095D01*
X47145238Y-31203095D02*
X47169047Y-31107857D01*
X47169047Y-31107857D02*
X47192857Y-31060238D01*
X47192857Y-31060238D02*
X47240476Y-31012619D01*
X47240476Y-31012619D02*
X47311904Y-30988809D01*
X47311904Y-30988809D02*
X47359523Y-30988809D01*
X47359523Y-30988809D02*
X47430952Y-31012619D01*
X47430952Y-31012619D02*
X47454761Y-31036428D01*
X47669047Y-31488809D02*
X47669047Y-30988809D01*
X47669047Y-30988809D02*
X47859523Y-30988809D01*
X47859523Y-30988809D02*
X47907142Y-31012619D01*
X47907142Y-31012619D02*
X47930952Y-31036428D01*
X47930952Y-31036428D02*
X47954761Y-31084047D01*
X47954761Y-31084047D02*
X47954761Y-31155476D01*
X47954761Y-31155476D02*
X47930952Y-31203095D01*
X47930952Y-31203095D02*
X47907142Y-31226904D01*
X47907142Y-31226904D02*
X47859523Y-31250714D01*
X47859523Y-31250714D02*
X47669047Y-31250714D01*
D11*
X27335714Y-28276904D02*
X27407142Y-28300714D01*
X27407142Y-28300714D02*
X27430952Y-28324523D01*
X27430952Y-28324523D02*
X27454761Y-28372142D01*
X27454761Y-28372142D02*
X27454761Y-28443571D01*
X27454761Y-28443571D02*
X27430952Y-28491190D01*
X27430952Y-28491190D02*
X27407142Y-28515000D01*
X27407142Y-28515000D02*
X27359523Y-28538809D01*
X27359523Y-28538809D02*
X27169047Y-28538809D01*
X27169047Y-28538809D02*
X27169047Y-28038809D01*
X27169047Y-28038809D02*
X27335714Y-28038809D01*
X27335714Y-28038809D02*
X27383333Y-28062619D01*
X27383333Y-28062619D02*
X27407142Y-28086428D01*
X27407142Y-28086428D02*
X27430952Y-28134047D01*
X27430952Y-28134047D02*
X27430952Y-28181666D01*
X27430952Y-28181666D02*
X27407142Y-28229285D01*
X27407142Y-28229285D02*
X27383333Y-28253095D01*
X27383333Y-28253095D02*
X27335714Y-28276904D01*
X27335714Y-28276904D02*
X27169047Y-28276904D01*
D10*
%TO.C,74HC595N DIP16*%
X36737380Y-23642857D02*
X36737380Y-24309523D01*
X36737380Y-24309523D02*
X35737380Y-23880952D01*
X36404047Y-25119047D02*
X35737380Y-25119047D01*
X36785000Y-24880952D02*
X36070714Y-24642857D01*
X36070714Y-24642857D02*
X36070714Y-25261904D01*
X35737380Y-25642857D02*
X36737380Y-25642857D01*
X36261190Y-25642857D02*
X36261190Y-26214285D01*
X35737380Y-26214285D02*
X36737380Y-26214285D01*
X35832619Y-27261904D02*
X35785000Y-27214285D01*
X35785000Y-27214285D02*
X35737380Y-27071428D01*
X35737380Y-27071428D02*
X35737380Y-26976190D01*
X35737380Y-26976190D02*
X35785000Y-26833333D01*
X35785000Y-26833333D02*
X35880238Y-26738095D01*
X35880238Y-26738095D02*
X35975476Y-26690476D01*
X35975476Y-26690476D02*
X36165952Y-26642857D01*
X36165952Y-26642857D02*
X36308809Y-26642857D01*
X36308809Y-26642857D02*
X36499285Y-26690476D01*
X36499285Y-26690476D02*
X36594523Y-26738095D01*
X36594523Y-26738095D02*
X36689761Y-26833333D01*
X36689761Y-26833333D02*
X36737380Y-26976190D01*
X36737380Y-26976190D02*
X36737380Y-27071428D01*
X36737380Y-27071428D02*
X36689761Y-27214285D01*
X36689761Y-27214285D02*
X36642142Y-27261904D01*
X36737380Y-28166666D02*
X36737380Y-27690476D01*
X36737380Y-27690476D02*
X36261190Y-27642857D01*
X36261190Y-27642857D02*
X36308809Y-27690476D01*
X36308809Y-27690476D02*
X36356428Y-27785714D01*
X36356428Y-27785714D02*
X36356428Y-28023809D01*
X36356428Y-28023809D02*
X36308809Y-28119047D01*
X36308809Y-28119047D02*
X36261190Y-28166666D01*
X36261190Y-28166666D02*
X36165952Y-28214285D01*
X36165952Y-28214285D02*
X35927857Y-28214285D01*
X35927857Y-28214285D02*
X35832619Y-28166666D01*
X35832619Y-28166666D02*
X35785000Y-28119047D01*
X35785000Y-28119047D02*
X35737380Y-28023809D01*
X35737380Y-28023809D02*
X35737380Y-27785714D01*
X35737380Y-27785714D02*
X35785000Y-27690476D01*
X35785000Y-27690476D02*
X35832619Y-27642857D01*
X35737380Y-28690476D02*
X35737380Y-28880952D01*
X35737380Y-28880952D02*
X35785000Y-28976190D01*
X35785000Y-28976190D02*
X35832619Y-29023809D01*
X35832619Y-29023809D02*
X35975476Y-29119047D01*
X35975476Y-29119047D02*
X36165952Y-29166666D01*
X36165952Y-29166666D02*
X36546904Y-29166666D01*
X36546904Y-29166666D02*
X36642142Y-29119047D01*
X36642142Y-29119047D02*
X36689761Y-29071428D01*
X36689761Y-29071428D02*
X36737380Y-28976190D01*
X36737380Y-28976190D02*
X36737380Y-28785714D01*
X36737380Y-28785714D02*
X36689761Y-28690476D01*
X36689761Y-28690476D02*
X36642142Y-28642857D01*
X36642142Y-28642857D02*
X36546904Y-28595238D01*
X36546904Y-28595238D02*
X36308809Y-28595238D01*
X36308809Y-28595238D02*
X36213571Y-28642857D01*
X36213571Y-28642857D02*
X36165952Y-28690476D01*
X36165952Y-28690476D02*
X36118333Y-28785714D01*
X36118333Y-28785714D02*
X36118333Y-28976190D01*
X36118333Y-28976190D02*
X36165952Y-29071428D01*
X36165952Y-29071428D02*
X36213571Y-29119047D01*
X36213571Y-29119047D02*
X36308809Y-29166666D01*
X36737380Y-30071428D02*
X36737380Y-29595238D01*
X36737380Y-29595238D02*
X36261190Y-29547619D01*
X36261190Y-29547619D02*
X36308809Y-29595238D01*
X36308809Y-29595238D02*
X36356428Y-29690476D01*
X36356428Y-29690476D02*
X36356428Y-29928571D01*
X36356428Y-29928571D02*
X36308809Y-30023809D01*
X36308809Y-30023809D02*
X36261190Y-30071428D01*
X36261190Y-30071428D02*
X36165952Y-30119047D01*
X36165952Y-30119047D02*
X35927857Y-30119047D01*
X35927857Y-30119047D02*
X35832619Y-30071428D01*
X35832619Y-30071428D02*
X35785000Y-30023809D01*
X35785000Y-30023809D02*
X35737380Y-29928571D01*
X35737380Y-29928571D02*
X35737380Y-29690476D01*
X35737380Y-29690476D02*
X35785000Y-29595238D01*
X35785000Y-29595238D02*
X35832619Y-29547619D01*
X35737380Y-30547619D02*
X36737380Y-30547619D01*
X36737380Y-30547619D02*
X35737380Y-31119047D01*
X35737380Y-31119047D02*
X36737380Y-31119047D01*
X35737380Y-32357143D02*
X36737380Y-32357143D01*
X36737380Y-32357143D02*
X36737380Y-32595238D01*
X36737380Y-32595238D02*
X36689761Y-32738095D01*
X36689761Y-32738095D02*
X36594523Y-32833333D01*
X36594523Y-32833333D02*
X36499285Y-32880952D01*
X36499285Y-32880952D02*
X36308809Y-32928571D01*
X36308809Y-32928571D02*
X36165952Y-32928571D01*
X36165952Y-32928571D02*
X35975476Y-32880952D01*
X35975476Y-32880952D02*
X35880238Y-32833333D01*
X35880238Y-32833333D02*
X35785000Y-32738095D01*
X35785000Y-32738095D02*
X35737380Y-32595238D01*
X35737380Y-32595238D02*
X35737380Y-32357143D01*
X35737380Y-33357143D02*
X36737380Y-33357143D01*
X35737380Y-33833333D02*
X36737380Y-33833333D01*
X36737380Y-33833333D02*
X36737380Y-34214285D01*
X36737380Y-34214285D02*
X36689761Y-34309523D01*
X36689761Y-34309523D02*
X36642142Y-34357142D01*
X36642142Y-34357142D02*
X36546904Y-34404761D01*
X36546904Y-34404761D02*
X36404047Y-34404761D01*
X36404047Y-34404761D02*
X36308809Y-34357142D01*
X36308809Y-34357142D02*
X36261190Y-34309523D01*
X36261190Y-34309523D02*
X36213571Y-34214285D01*
X36213571Y-34214285D02*
X36213571Y-33833333D01*
X35737380Y-35357142D02*
X35737380Y-34785714D01*
X35737380Y-35071428D02*
X36737380Y-35071428D01*
X36737380Y-35071428D02*
X36594523Y-34976190D01*
X36594523Y-34976190D02*
X36499285Y-34880952D01*
X36499285Y-34880952D02*
X36451666Y-34785714D01*
X36737380Y-36214285D02*
X36737380Y-36023809D01*
X36737380Y-36023809D02*
X36689761Y-35928571D01*
X36689761Y-35928571D02*
X36642142Y-35880952D01*
X36642142Y-35880952D02*
X36499285Y-35785714D01*
X36499285Y-35785714D02*
X36308809Y-35738095D01*
X36308809Y-35738095D02*
X35927857Y-35738095D01*
X35927857Y-35738095D02*
X35832619Y-35785714D01*
X35832619Y-35785714D02*
X35785000Y-35833333D01*
X35785000Y-35833333D02*
X35737380Y-35928571D01*
X35737380Y-35928571D02*
X35737380Y-36119047D01*
X35737380Y-36119047D02*
X35785000Y-36214285D01*
X35785000Y-36214285D02*
X35832619Y-36261904D01*
X35832619Y-36261904D02*
X35927857Y-36309523D01*
X35927857Y-36309523D02*
X36165952Y-36309523D01*
X36165952Y-36309523D02*
X36261190Y-36261904D01*
X36261190Y-36261904D02*
X36308809Y-36214285D01*
X36308809Y-36214285D02*
X36356428Y-36119047D01*
X36356428Y-36119047D02*
X36356428Y-35928571D01*
X36356428Y-35928571D02*
X36308809Y-35833333D01*
X36308809Y-35833333D02*
X36261190Y-35785714D01*
X36261190Y-35785714D02*
X36165952Y-35738095D01*
D12*
%TO.C,REF\u002A\u002A*%
X44545000Y-28885000D02*
X44545000Y-32760000D01*
X44458276Y-28885000D02*
X44545000Y-28885000D01*
X44244493Y-32760000D02*
X44545000Y-32760000D01*
X43155000Y-32760000D02*
X43455507Y-32760000D01*
X43155000Y-28885000D02*
X43241724Y-28885000D01*
X43155000Y-28885000D02*
X43155000Y-32760000D01*
X43155000Y-28200000D02*
X43155000Y-27515000D01*
X43155000Y-27515000D02*
X43850000Y-27515000D01*
D10*
%TO.C,74HC595N DIP16*%
X39440000Y-20250000D02*
X32960000Y-20250000D01*
X39440000Y-20250000D02*
X39440000Y-39750000D01*
X32960000Y-20250000D02*
X32960000Y-39750000D01*
X39440000Y-39750000D02*
X32960000Y-39750000D01*
X34730001Y-20340000D02*
G75*
G03*
X37669999Y-20340000I1469999J0D01*
G01*
D12*
%TO.C,REF\u002A\u002A*%
X28155000Y-26715000D02*
X28850000Y-26715000D01*
X28155000Y-27400000D02*
X28155000Y-26715000D01*
X28155000Y-28085000D02*
X28155000Y-33960000D01*
X28155000Y-28085000D02*
X28241724Y-28085000D01*
X28155000Y-33960000D02*
X28455507Y-33960000D01*
X29244493Y-33960000D02*
X29545000Y-33960000D01*
X29458276Y-28085000D02*
X29545000Y-28085000D01*
X29545000Y-28085000D02*
X29545000Y-33960000D01*
%TD*%
M02*
