%TF.GenerationSoftware,KiCad,Pcbnew,7.0.1*%
%TF.CreationDate,2023-04-23T12:43:51+02:00*%
%TF.ProjectId,display7segm,64697370-6c61-4793-9773-65676d2e6b69,rev?*%
%TF.SameCoordinates,Original*%
%TF.FileFunction,Copper,L1,Top*%
%TF.FilePolarity,Positive*%
%FSLAX46Y46*%
G04 Gerber Fmt 4.6, Leading zero omitted, Abs format (unit mm)*
G04 Created by KiCad (PCBNEW 7.0.1) date 2023-04-23 12:43:51*
%MOMM*%
%LPD*%
G01*
G04 APERTURE LIST*
%TA.AperFunction,ComponentPad*%
%ADD10O,0.850000X0.850000*%
%TD*%
%TA.AperFunction,ComponentPad*%
%ADD11R,0.850000X0.850000*%
%TD*%
%TA.AperFunction,ComponentPad*%
%ADD12C,0.830000*%
%TD*%
%TA.AperFunction,Conductor*%
%ADD13C,0.500000*%
%TD*%
%TA.AperFunction,Conductor*%
%ADD14C,0.250000*%
%TD*%
G04 APERTURE END LIST*
D10*
%TO.P,REF\u002A\u002A,5*%
%TO.N,N/C*%
X43850000Y-32200000D03*
%TO.P,REF\u002A\u002A,4*%
X43850000Y-31200000D03*
%TO.P,REF\u002A\u002A,3*%
X43850000Y-30200000D03*
%TO.P,REF\u002A\u002A,2*%
X43850000Y-29200000D03*
D11*
%TO.P,REF\u002A\u002A,1*%
X43850000Y-28200000D03*
%TD*%
D12*
%TO.P,74HC595N DIP16,1*%
%TO.N,N/C*%
X40325000Y-21110000D03*
%TO.P,74HC595N DIP16,2*%
X40325000Y-23650000D03*
%TO.P,74HC595N DIP16,3*%
X40325000Y-26190000D03*
%TO.P,74HC595N DIP16,4*%
X40325000Y-28730000D03*
%TO.P,74HC595N DIP16,5*%
X40325000Y-31270000D03*
%TO.P,74HC595N DIP16,6*%
X40325000Y-33810000D03*
%TO.P,74HC595N DIP16,7*%
X40325000Y-36350000D03*
%TO.P,74HC595N DIP16,8*%
X40325000Y-38890000D03*
%TO.P,74HC595N DIP16,9*%
X32075000Y-21110000D03*
%TO.P,74HC595N DIP16,10*%
X32075000Y-23650000D03*
%TO.P,74HC595N DIP16,11*%
X32075000Y-26190000D03*
%TO.P,74HC595N DIP16,12*%
X32075000Y-28730000D03*
%TO.P,74HC595N DIP16,13*%
X32075000Y-31270000D03*
%TO.P,74HC595N DIP16,14*%
X32075000Y-33810000D03*
%TO.P,74HC595N DIP16,15*%
X32075000Y-36350000D03*
%TO.P,74HC595N DIP16,16*%
X32075000Y-38890000D03*
%TD*%
D11*
%TO.P,REF\u002A\u002A,1*%
%TO.N,N/C*%
X28850000Y-27400000D03*
D10*
%TO.P,REF\u002A\u002A,2*%
X28850000Y-28400000D03*
%TO.P,REF\u002A\u002A,3*%
X28850000Y-29400000D03*
%TO.P,REF\u002A\u002A,4*%
X28850000Y-30400000D03*
%TO.P,REF\u002A\u002A,5*%
X28850000Y-31400000D03*
%TO.P,REF\u002A\u002A,6*%
X28850000Y-32400000D03*
%TO.P,REF\u002A\u002A,7*%
X28850000Y-33400000D03*
%TD*%
D13*
%TO.N,*%
X43850000Y-28200000D02*
X42300000Y-28200000D01*
X42150000Y-28050000D02*
X42150000Y-26500000D01*
X42300000Y-28200000D02*
X42150000Y-28050000D01*
D14*
X42900000Y-36300000D02*
X42850000Y-36350000D01*
D13*
X42850000Y-36350000D02*
X40325000Y-36350000D01*
X45150000Y-26500000D02*
X45800000Y-27150000D01*
X42150000Y-26500000D02*
X42150000Y-21500000D01*
D14*
X30250000Y-33400000D02*
X28850000Y-33400000D01*
X28850000Y-28400000D02*
X29800000Y-28400000D01*
D13*
X42150000Y-21500000D02*
X41760000Y-21110000D01*
D14*
X30725000Y-35000000D02*
X30500000Y-35000000D01*
X30950000Y-28200000D02*
X29750000Y-29400000D01*
X29750000Y-29400000D02*
X28850000Y-29400000D01*
X28850000Y-27400000D02*
X28850000Y-24335000D01*
X32075000Y-31270000D02*
X28980000Y-31270000D01*
X32075000Y-33810000D02*
X31000000Y-32735000D01*
X42000000Y-31200000D02*
X41700000Y-31500000D01*
X28980000Y-31270000D02*
X28850000Y-31400000D01*
X40325000Y-26190000D02*
X41390000Y-26190000D01*
X41700000Y-31500000D02*
X41700000Y-32435000D01*
D13*
X42150000Y-26500000D02*
X45150000Y-26500000D01*
D14*
X41400000Y-28950000D02*
X41650000Y-29200000D01*
X43850000Y-30200000D02*
X41395000Y-30200000D01*
X31000000Y-32735000D02*
X31000000Y-32400000D01*
X41400000Y-26200000D02*
X41400000Y-28950000D01*
X43850000Y-31200000D02*
X42000000Y-31200000D01*
X32075000Y-28730000D02*
X30905000Y-29900000D01*
X41700000Y-32435000D02*
X40325000Y-33810000D01*
X41395000Y-30200000D02*
X40325000Y-31270000D01*
X30500000Y-33650000D02*
X30250000Y-33400000D01*
X43850000Y-29200000D02*
X41650000Y-29200000D01*
X29950000Y-25775000D02*
X32075000Y-23650000D01*
X29950000Y-28250000D02*
X29950000Y-25775000D01*
X30500000Y-35000000D02*
X30500000Y-33650000D01*
X30950000Y-26200000D02*
X30950000Y-28200000D01*
X41390000Y-26190000D02*
X41400000Y-26200000D01*
D13*
X45800000Y-27150000D02*
X45800000Y-33400000D01*
D14*
X30960000Y-26190000D02*
X30950000Y-26200000D01*
X32075000Y-36350000D02*
X30725000Y-35000000D01*
X31000000Y-32400000D02*
X28850000Y-32400000D01*
X28850000Y-24335000D02*
X32075000Y-21110000D01*
X30905000Y-29900000D02*
X30700000Y-29900000D01*
X32075000Y-26190000D02*
X30960000Y-26190000D01*
X29800000Y-28400000D02*
X29950000Y-28250000D01*
X30700000Y-29900000D02*
X30200000Y-30400000D01*
X30200000Y-30400000D02*
X28850000Y-30400000D01*
D13*
X41760000Y-21110000D02*
X40325000Y-21110000D01*
X45800000Y-33400000D02*
X42900000Y-36300000D01*
%TD*%
M02*
