%TF.GenerationSoftware,KiCad,Pcbnew,7.0.1*%
%TF.CreationDate,2023-04-23T12:43:51+02:00*%
%TF.ProjectId,display7segm,64697370-6c61-4793-9773-65676d2e6b69,rev?*%
%TF.SameCoordinates,Original*%
%TF.FileFunction,Copper,L2,Bot*%
%TF.FilePolarity,Positive*%
%FSLAX46Y46*%
G04 Gerber Fmt 4.6, Leading zero omitted, Abs format (unit mm)*
G04 Created by KiCad (PCBNEW 7.0.1) date 2023-04-23 12:43:51*
%MOMM*%
%LPD*%
G01*
G04 APERTURE LIST*
%TA.AperFunction,ComponentPad*%
%ADD10O,0.850000X0.850000*%
%TD*%
%TA.AperFunction,ComponentPad*%
%ADD11R,0.850000X0.850000*%
%TD*%
%TA.AperFunction,ComponentPad*%
%ADD12C,0.830000*%
%TD*%
%TA.AperFunction,Conductor*%
%ADD13C,0.500000*%
%TD*%
%TA.AperFunction,Conductor*%
%ADD14C,0.250000*%
%TD*%
G04 APERTURE END LIST*
D10*
%TO.P,REF\u002A\u002A,5*%
%TO.N,N/C*%
X43850000Y-32200000D03*
%TO.P,REF\u002A\u002A,4*%
X43850000Y-31200000D03*
%TO.P,REF\u002A\u002A,3*%
X43850000Y-30200000D03*
%TO.P,REF\u002A\u002A,2*%
X43850000Y-29200000D03*
D11*
%TO.P,REF\u002A\u002A,1*%
X43850000Y-28200000D03*
%TD*%
D12*
%TO.P,74HC595N DIP16,1*%
%TO.N,N/C*%
X40325000Y-21110000D03*
%TO.P,74HC595N DIP16,2*%
X40325000Y-23650000D03*
%TO.P,74HC595N DIP16,3*%
X40325000Y-26190000D03*
%TO.P,74HC595N DIP16,4*%
X40325000Y-28730000D03*
%TO.P,74HC595N DIP16,5*%
X40325000Y-31270000D03*
%TO.P,74HC595N DIP16,6*%
X40325000Y-33810000D03*
%TO.P,74HC595N DIP16,7*%
X40325000Y-36350000D03*
%TO.P,74HC595N DIP16,8*%
X40325000Y-38890000D03*
%TO.P,74HC595N DIP16,9*%
X32075000Y-21110000D03*
%TO.P,74HC595N DIP16,10*%
X32075000Y-23650000D03*
%TO.P,74HC595N DIP16,11*%
X32075000Y-26190000D03*
%TO.P,74HC595N DIP16,12*%
X32075000Y-28730000D03*
%TO.P,74HC595N DIP16,13*%
X32075000Y-31270000D03*
%TO.P,74HC595N DIP16,14*%
X32075000Y-33810000D03*
%TO.P,74HC595N DIP16,15*%
X32075000Y-36350000D03*
%TO.P,74HC595N DIP16,16*%
X32075000Y-38890000D03*
%TD*%
D11*
%TO.P,REF\u002A\u002A,1*%
%TO.N,N/C*%
X28850000Y-27400000D03*
D10*
%TO.P,REF\u002A\u002A,2*%
X28850000Y-28400000D03*
%TO.P,REF\u002A\u002A,3*%
X28850000Y-29400000D03*
%TO.P,REF\u002A\u002A,4*%
X28850000Y-30400000D03*
%TO.P,REF\u002A\u002A,5*%
X28850000Y-31400000D03*
%TO.P,REF\u002A\u002A,6*%
X28850000Y-32400000D03*
%TO.P,REF\u002A\u002A,7*%
X28850000Y-33400000D03*
%TD*%
D13*
%TO.N,*%
X32075000Y-40025000D02*
X32075000Y-38890000D01*
X42250000Y-32050000D02*
X42250000Y-38750000D01*
X40500000Y-40500000D02*
X32550000Y-40500000D01*
X43850000Y-32200000D02*
X42400000Y-32200000D01*
X42195000Y-30600000D02*
X40325000Y-28730000D01*
X42250000Y-32050000D02*
X42250000Y-30600000D01*
D14*
X42400000Y-32200000D02*
X42250000Y-32050000D01*
D13*
X32550000Y-40500000D02*
X32075000Y-40025000D01*
X42250000Y-30600000D02*
X42195000Y-30600000D01*
X42250000Y-38750000D02*
X40500000Y-40500000D01*
%TD*%
M02*
